<svg xmlns="http://www.w3.org/2000/svg" viewBox="0 0 1200 800" role="img" aria-label="Mockup criacao aplicativos">
  <defs><linearGradient id="ga" x1="0" y1="0" x2="1" y2="1"><stop offset="0%" stop-color="#7c3aed"/><stop offset="100%" stop-color="#06b6d4"/></linearGradient></defs>
  <rect width="1200" height="800" fill="#050608"/>
  <rect x="80" y="80" width="1040" height="640" rx="20" fill="#0c0d11" stroke="rgba(255,255,255,0.06)"/>
  <rect x="110" y="110" width="260" height="580" rx="14" fill="#111318"/>
  <rect x="400" y="110" width="690" height="90" rx="14" fill="#111318"/>
  <rect x="400" y="230" width="430" height="460" rx="14" fill="#111318" stroke="rgba(255,255,255,0.06)"/>
  <rect x="860" y="230" width="230" height="220" rx="14" fill="#111318" stroke="rgba(255,255,255,0.06)"/>
  <rect x="860" y="470" width="230" height="220" rx="14" fill="#111318" stroke="rgba(255,255,255,0.06)"/>
  <rect x="432" y="270" width="366" height="206" rx="12" fill="#1a1f2a"/>
  <rect x="432" y="510" width="260" height="18" rx="6" fill="#1c212f"/>
  <rect x="432" y="540" width="340" height="18" rx="6" fill="#1c212f"/>
  <rect x="432" y="570" width="290" height="18" rx="6" fill="#1c212f"/>
  <rect x="890" y="260" width="170" height="30" rx="10" fill="url(#ga)" opacity="0.72"/>
</svg>
