<svg xmlns="http://www.w3.org/2000/svg" viewBox="0 0 1200 800" role="img" aria-label="Mockup consultoria estrategica">
  <defs><linearGradient id="gf" x1="0" y1="0" x2="1" y2="1"><stop offset="0%" stop-color="#7c3aed"/><stop offset="100%" stop-color="#06b6d4"/></linearGradient></defs>
  <rect width="1200" height="800" fill="#050608"/>
  <rect x="70" y="70" width="1060" height="660" rx="20" fill="#0c0d11" stroke="rgba(255,255,255,0.06)"/>
  <rect x="100" y="100" width="580" height="600" rx="14" fill="#111318"/>
  <rect x="710" y="100" width="390" height="190" rx="14" fill="#111318"/>
  <rect x="710" y="320" width="390" height="380" rx="14" fill="#111318"/>
  <rect x="130" y="140" width="520" height="40" rx="12" fill="#1a1f2a"/>
  <rect x="130" y="210" width="480" height="14" rx="5" fill="#1c212f"/>
  <rect x="130" y="236" width="450" height="14" rx="5" fill="#1c212f"/>
  <rect x="130" y="290" width="520" height="120" rx="12" fill="url(#gf)" opacity="0.2"/>
  <rect x="130" y="442" width="520" height="14" rx="5" fill="#1c212f"/>
  <rect x="130" y="468" width="480" height="14" rx="5" fill="#1c212f"/>
  <rect x="130" y="494" width="430" height="14" rx="5" fill="#1c212f"/>
  <rect x="742" y="140" width="326" height="32" rx="10" fill="url(#gf)" opacity="0.78"/>
  <rect x="742" y="198" width="290" height="12" rx="4" fill="#1c212f"/>
  <rect x="742" y="224" width="250" height="12" rx="4" fill="#1c212f"/>
  <rect x="742" y="360" width="326" height="18" rx="6" fill="#1c212f"/>
  <rect x="742" y="392" width="300" height="18" rx="6" fill="#1c212f"/>
  <rect x="742" y="424" width="250" height="18" rx="6" fill="#1c212f"/>
</svg>
