<svg xmlns="http://www.w3.org/2000/svg" viewBox="0 0 1200 800" role="img" aria-label="Mockup de infraestrutura self-hosted">
  <defs><linearGradient id="ge" x1="0" y1="0" x2="1" y2="1"><stop offset="0%" stop-color="#7c3aed"/><stop offset="100%" stop-color="#06b6d4"/></linearGradient></defs>
  <rect width="1200" height="800" fill="#050608"/>
  <rect x="70" y="70" width="1060" height="660" rx="20" fill="#0c0d11" stroke="rgba(255,255,255,0.06)"/>
  <rect x="110" y="110" width="610" height="610" rx="14" fill="#111318"/>
  <rect x="750" y="110" width="340" height="290" rx="14" fill="#111318"/>
  <rect x="750" y="430" width="340" height="290" rx="14" fill="#111318"/>
  <rect x="150" y="160" width="530" height="72" rx="10" fill="#1a1f2a"/>
  <rect x="150" y="250" width="530" height="72" rx="10" fill="#1a1f2a"/>
  <rect x="150" y="340" width="530" height="72" rx="10" fill="#1a1f2a"/>
  <rect x="150" y="430" width="530" height="72" rx="10" fill="#1a1f2a"/>
  <rect x="150" y="520" width="530" height="72" rx="10" fill="#1a1f2a"/>
  <circle cx="180" cy="196" r="7" fill="#06b6d4"/>
  <circle cx="180" cy="286" r="7" fill="#7c3aed"/>
  <circle cx="180" cy="376" r="7" fill="#06b6d4"/>
  <circle cx="180" cy="466" r="7" fill="#7c3aed"/>
  <circle cx="180" cy="556" r="7" fill="#06b6d4"/>
  <rect x="782" y="146" width="276" height="32" rx="12" fill="url(#ge)" opacity="0.75"/>
  <rect x="782" y="194" width="240" height="12" rx="4" fill="#1c212f"/>
  <rect x="782" y="220" width="210" height="12" rx="4" fill="#1c212f"/>
</svg>
