<svg xmlns="http://www.w3.org/2000/svg" viewBox="0 0 200 50" fill="none">
  <path d="M25 42c-1.5 0-2.9-.6-4-1.6L8.5 28.2C5.5 25.4 4 21.6 4 17.6 4 10.2 10 5 17.2 5c3.6 0 6.9 1.4 9.3 3.9l-1.5 1.4C22.8 8 20.1 7 17.2 7 11.1 7 6 11.3 6 17.6c0 3.4 1.3 6.5 3.6 8.7L22 38.6c.8.8 1.9 1.2 3 1.2s2.2-.4 3-1.2l12.4-12.3c2.3-2.2 3.6-5.3 3.6-8.7C44 11.3 38.9 7 32.8 7c-2.9 0-5.6 1-7.8 3l-1.5-1.4C26 6.4 29.2 5 32.8 5 40 5 46 10.2 46 17.6c0 4-1.5 7.8-4.5 10.6L29 40.4c-1.1 1-2.5 1.6-4 1.6z" fill="#FF6B6B"/>
  <text x="55" y="35" font-family="Inter, sans-serif" font-size="22" font-weight="600" fill="#FFFFFF">Lovable</text>
</svg>