<svg xmlns="http://www.w3.org/2000/svg" viewBox="0 0 200 50" fill="none">
  <g transform="translate(5, 5)">
    <path d="M0 8C0 3.58 3.58 0 8 0H20V13.33H8C3.58 13.33 0 9.75 0 5.33V8Z" fill="#F26207"/>
    <path d="M20 13.33H8C3.58 13.33 0 16.91 0 21.33V18.67C0 23.09 3.58 26.67 8 26.67H20V13.33Z" fill="#FFFFFF"/>
    <path d="M20 26.67H8C3.58 26.67 0 30.25 0 34.67V32C0 36.42 3.58 40 8 40H20V26.67Z" fill="#F26207"/>
    <rect x="20" y="0" width="12" height="13.33" fill="#F26207"/>
    <rect x="20" y="13.33" width="12" height="13.34" fill="#FFFFFF"/>
    <rect x="20" y="26.67" width="12" height="13.33" fill="#F26207"/>
  </g>
  <text x="55" y="33" font-family="Inter, sans-serif" font-size="22" font-weight="700" fill="#FFFFFF">Replit</text>
</svg>