<svg xmlns="http://www.w3.org/2000/svg" viewBox="0 0 1200 800" role="img" aria-label="Mockup integracao sistemas">
  <defs><linearGradient id="gd" x1="0" y1="0" x2="1" y2="1"><stop offset="0%" stop-color="#7c3aed"/><stop offset="100%" stop-color="#06b6d4"/></linearGradient></defs>
  <rect width="1200" height="800" fill="#050608"/>
  <rect x="80" y="80" width="1040" height="640" rx="20" fill="#0c0d11" stroke="rgba(255,255,255,0.06)"/>
  <rect x="120" y="120" width="220" height="170" rx="14" fill="#111318"/>
  <rect x="490" y="120" width="220" height="170" rx="14" fill="#111318"/>
  <rect x="860" y="120" width="220" height="170" rx="14" fill="#111318"/>
  <rect x="120" y="500" width="220" height="170" rx="14" fill="#111318"/>
  <rect x="490" y="500" width="220" height="170" rx="14" fill="#111318"/>
  <rect x="860" y="500" width="220" height="170" rx="14" fill="#111318"/>
  <circle cx="600" cy="395" r="68" fill="url(#gd)" opacity="0.25"/>
  <circle cx="600" cy="395" r="20" fill="#7c3aed"/>
  <path d="M340 205 H490 M710 205 H860 M230 290 V500 M600 290 V327 M600 463 V500 M340 585 H490 M710 585 H860" stroke="url(#gd)" stroke-width="4" fill="none"/>
  <rect x="540" y="368" width="120" height="54" rx="10" fill="#111318" stroke="rgba(255,255,255,0.06)"/>
</svg>
