<svg xmlns="http://www.w3.org/2000/svg" viewBox="0 0 1600 900" role="img" aria-label="Mockup plataforma servicos">
  <defs>
    <linearGradient id="g1" x1="0" y1="0" x2="1" y2="1">
      <stop offset="0%" stop-color="#7c3aed"/>
      <stop offset="100%" stop-color="#06b6d4"/>
    </linearGradient>
  </defs>
  <rect width="1600" height="900" fill="#050608"/>
  <rect x="90" y="90" width="1420" height="720" rx="24" fill="#0c0d11" stroke="rgba(255,255,255,0.06)"/>
  <rect x="120" y="120" width="260" height="660" rx="16" fill="#111318"/>
  <rect x="420" y="120" width="1060" height="76" rx="14" fill="#111318"/>
  <rect x="450" y="144" width="420" height="28" rx="10" fill="#1a1d24"/>
  <rect x="1220" y="142" width="230" height="32" rx="12" fill="url(#g1)" opacity="0.8"/>
  <rect x="420" y="224" width="330" height="150" rx="14" fill="#111318" stroke="rgba(255,255,255,0.06)"/>
  <rect x="785" y="224" width="330" height="150" rx="14" fill="#111318" stroke="rgba(255,255,255,0.06)"/>
  <rect x="1150" y="224" width="330" height="150" rx="14" fill="#111318" stroke="rgba(255,255,255,0.06)"/>
  <rect x="420" y="402" width="700" height="378" rx="14" fill="#111318" stroke="rgba(255,255,255,0.06)"/>
  <rect x="1150" y="402" width="330" height="378" rx="14" fill="#111318" stroke="rgba(255,255,255,0.06)"/>
  <rect x="458" y="438" width="625" height="18" rx="6" fill="#1d2130"/>
  <rect x="458" y="470" width="560" height="18" rx="6" fill="#1a1f2a"/>
  <rect x="458" y="502" width="585" height="18" rx="6" fill="#1a1f2a"/>
  <rect x="1190" y="440" width="252" height="14" rx="5" fill="#1c212f"/>
  <rect x="1190" y="470" width="210" height="14" rx="5" fill="#1c212f"/>
  <rect x="1190" y="520" width="210" height="160" rx="10" fill="url(#g1)" opacity="0.2"/>
</svg>
