<svg xmlns="http://www.w3.org/2000/svg" viewBox="0 0 1200 800" role="img" aria-label="Mockup de IA privada corporativa">
  <defs>
    <linearGradient id="g2" x1="0" y1="0" x2="1" y2="1">
      <stop offset="0%" stop-color="#7c3aed"/>
      <stop offset="100%" stop-color="#06b6d4"/>
    </linearGradient>
  </defs>
  <rect width="1200" height="800" fill="#050608"/>
  <rect x="70" y="70" width="1060" height="660" rx="22" fill="#0c0d11" stroke="rgba(255,255,255,0.06)"/>
  <rect x="100" y="100" width="680" height="600" rx="14" fill="#111318" stroke="rgba(255,255,255,0.06)"/>
  <rect x="810" y="100" width="290" height="286" rx="14" fill="#111318" stroke="rgba(255,255,255,0.06)"/>
  <rect x="810" y="414" width="290" height="286" rx="14" fill="#111318" stroke="rgba(255,255,255,0.06)"/>
  <rect x="130" y="140" width="380" height="34" rx="12" fill="#1a1f28"/>
  <rect x="130" y="210" width="540" height="16" rx="6" fill="#1b2232"/>
  <rect x="130" y="238" width="500" height="16" rx="6" fill="#1b2232"/>
  <rect x="130" y="296" width="520" height="120" rx="10" fill="url(#g2)" opacity="0.18"/>
  <rect x="130" y="446" width="608" height="12" rx="4" fill="#1c212f"/>
  <rect x="130" y="470" width="580" height="12" rx="4" fill="#1c212f"/>
  <rect x="130" y="494" width="558" height="12" rx="4" fill="#1c212f"/>
  <rect x="842" y="140" width="226" height="32" rx="11" fill="url(#g2)" opacity="0.7"/>
  <rect x="842" y="194" width="220" height="12" rx="4" fill="#1c212f"/>
  <rect x="842" y="216" width="200" height="12" rx="4" fill="#1c212f"/>
  <rect x="842" y="248" width="236" height="104" rx="10" fill="#1a1f2a"/>
  <rect x="842" y="450" width="236" height="14" rx="5" fill="#1c212f"/>
  <rect x="842" y="474" width="220" height="14" rx="5" fill="#1c212f"/>
  <rect x="842" y="500" width="198" height="14" rx="5" fill="#1c212f"/>
</svg>
